<?xml version="1.0" standalone="yes"?>
<svg width="416" height="371">
<path style="fill:#282828; stroke:none;" d="M0 0L0 371L416 371L416 0L0 0z"/>
<path style="fill:#ffffff; stroke:none;" d="M71 57L71 63L77 63L77 57L71 57z"/>
<path style="fill:#cccccc; stroke:none;" d="M77 57L77 63L71 63L71 69L77 69L77 74L82 74L82 69L77 69L77 63L83 63L83 68L88 68L88 63L83 63L83 57L77 57z"/>
<path style="fill:#e8e8e8; stroke:none;" d="M83 57L83 63L88 63L88 68L83 68L83 63L77 63L77 69L82 69L82 74L77 74L77 69L71 69L71 75L77 75L77 81L82 81L82 86L88 86L88 92L83 92L83 98L77 98L77 103L71 103L71 109L77 109L77 115L83 115L83 121L88 121L88 132L83 132L83 127L77 127L77 133L71 133L71 139L77 139L77 145L82 145L83 156L88 156L88 167L83 167L83 162L77 162L77 167L71 167L71 173L77 173L77 179L83 179L83 185L77 185L77 191C88.1772 188.444 94.1389 185.79 106 188C104.879 182.77 93.5027 185 89 185L89 179L94 179L94 173L100 173L100 168L106 168L106 173L112 173L112 179L117 179L117 185L112 185L110 188L110 189L118 189L118 185L123 185L123 179L129 179L129 173L135 173C134.762 165.751 129.536 164.125 123 163L123 167L118 167L121 162L121 161L117 160L112 162L112 167L106 167L106 162L100 162L100 167L94 167L94 156L89 156L89 150L94 150L89.0363 138L94 121L89 121L89 115L94 115L94 109L100 109L100 104L106 104L106 109L112 109L112 115L117 115L117 121L106 121L106 127L100 127C101.189 133.854 122.507 140.965 129 144L129 139L135 139L135 144L141 144L141 139L147 139L147 144L152 144C152 151.802 153.277 160.586 148 167L148 168L152 168L152 173L141 173L141 174L146 174L146 179L147 179L147 174L152 174L152 181L153 181L157 173L153 173L153 168L158 171L161 167L159 162L158 162L158 167L153 167L153 139L157 139L153 133L152 133L152 138L147 138L147 133L141 133L141 138L135 138L135 133L129 133L129 127L123 127L123 133L118 133L118 121L123 121L123 115L129 115L129 109L124 109L124 104L133 104L133 103L129 103L129 98L123 98L123 92L127 92L124 81C128.851 79.512 134.148 74.0612 135 69L129 69L129 63L123 63L123 57L117 57L117 63L111 63L111 68L106 68L106 74L100 74L100 68L95 68L95 63L89 63L89 57L83 57z"/>
<path style="fill:#cccccc; stroke:none;" d="M89 57L89 63L94 63L94 57L89 57z"/>
<path style="fill:#ffffff; stroke:none;" d="M94 57L94 63L100 63L100 69L106 69L106 63L112 63L112 57L106 57L106 63L100 63L100 57L94 57z"/>
<path style="fill:#cccccc; stroke:none;" d="M100 57L100 63L106 63L106 57L100 57M112 57L112 63L117 63L117 57L112 57M123 57L123 63L129 63L129 69L135 69L135 72L141 72L141 69L135 69L135 63L141 63L141 68L146 68L146 63L141 63L141 57L135 57L135 63L129 63L129 57L123 57z"/>
<path style="fill:#ffffff; stroke:none;" d="M129 57L129 63L135 63L135 57L129 57M141 57L141 63L147 63L147 68L152 68L152 63L147 63L147 57L141 57z"/>
<path style="fill:#cccccc; stroke:none;" d="M147 57L147 63L152 63L152 57L147 57z"/>
<path style="fill:#e2e2e2; stroke:none;" d="M152 57L152 68L147 68L147 63L146 63L146 68L141 68L141 69L147 69L146 74L158 80L158 75L164 75L164 80L170 80L170 75L176 75L176 81L181 81L181 86L176 86L176 92L181 92L181 97L176 97L176 98L181 98L181 103L177 103L177 104L181 104L182 121L187 121L187 133L182 133L176 145L181 145L181 149C184.741 148.57 186.339 147.814 187 144L193 144L193 139L199 139L199 144L205 143L205 139L211 139L211 143L217 143L217 139L240 139L240 145L245 145L243 148L243 149L257 150L257 144L252 144L246 133L245 133L245 138L217 138L215 133L216 138L211 138C210.644 133.48 208.671 131.509 205 129L205 138L199 138L199 133L193 133L193 121L188 121L188 115L193 115L193 109L199 109L199 104L203 104L203 98L199 98L199 103L193 103L193 97L188 97L188 92L193 92L193 86L188 86L188 81L193 81L193 75L199 75L199 80L205 80L205 75L228 80L228 75L234 75L234 80L245 81L245 86L240 86L240 92L245 92L245 97L240 97L240 103L234 103L234 98L230 98L230 104L234 104L234 109L240 109L240 115L246 117L246 109L250 103L246 103L246 98L252 100L252 92L257 92L257 86L252 86L252 80L257 80L257 75L263 75L263 80L269 80L269 75L275 75L275 80L286 83L287 75L304 75L304 81L309 81L309 86L315 86L315 92L310 92L310 98L304 98L304 103L298 103L298 98L292 98L292 103L288 103L288 104L298 104L298 109L304 109L304 115L310 115L310 121L316 122L316 115L321 115L321 109L327 109L327 104L333 104L333 109L339 109L339 115L344 115L344 138L339 138L339 144L344 144L344 150L339 150L339 156L344 156L344 162L339 162L339 167L333 167L333 162L327 162L327 167L321 167L321 163C314.555 166.592 304.267 170.975 304 179L310 179L310 185L315 185L315 191L310 191L310 194L316 194L316 191L321 191L321 185L316 185L316 179L321 179L321 173L327 173L327 168L333 168L333 173L339 173L339 179L344 179L344 185L339 185L339 191L344 191L349.377 205.996L339 220L344 220L344 226L339 226L339 231L333 231L333 226L327 226L327 231L321 231L321 226L316 226L316 220L321 220L321 214L310 213L310 214L315 214L315 220L310 220L310 226L304 226L304 231L297 229L292 231L292 232L298 234L299 234C309.008 229.184 328.598 230.703 339 234L344 232L343 238L344 239L350 238L350 243L356 243L356 237L362 237L362 231L356 231L356 226L350 226L350 220L345 220L345 214L350 214L350 208L356 208L356 203L362 203L362 197L356 197L356 191L345 191L345 185L350 185L350 179L356 179L356 173L362 173L362 167L356 167L356 162L350 162L350 156L345 156L345 150L350 150L350 144L356 144L356 139L362 139L362 133L356 133L356 127L350 127L350 132L345 132L345 121L350 121L350 115L356 115L356 109L362 109L362 103L356 103L356 98L350 98L350 92L345 92L345 86L350 86L350 80L356 80L356 75L362 75L362 69L356 69L356 63L350 63L350 57L344 57L344 63L338 63L338 68L333 68L333 74L327 74L327 68L322 68L322 63L316 63L316 57L310 57L310 63L304 63L304 69L309 69L309 74L281 74L281 69L292 69L292 68L287 68L287 63L286 63L286 68L281 68L281 57L280 57L280 68L275 68L275 63L274 63L274 68L269 68L269 63L263 63L263 68L257 68L257 63L252 63L252 57L245 57L245 63L240 63L240 69L245 69L245 74L234 74L234 69L223 68L223 63L222 63L222 68L217 68L217 57L216 57L216 68L211 68L211 63L210 63L210 68L205 68L205 63L199 63L199 68L193 68L193 63L188 63L188 57L181 57L181 63L176 63L176 69L170 69L170 74L164 74L164 68L159 68L159 63L158 63L158 68L153 68L152 57z"/>
<path style="fill:#ffffff; stroke:none;" d="M153 57L153 63L158 63L158 57L153 57z"/>
<path style="fill:#cccccc; stroke:none;" d="M158 57L158 63L164 63L164 69L170 69L170 63L176 63L176 57L170 57L170 63L164 63L164 57L158 57z"/>
<path style="fill:#ffffff; stroke:none;" d="M164 57L164 63L170 63L170 57L164 57M176 57L176 63L181 63L181 57L176 57M188 57L188 63L193 63L193 68L199 68L199 63L205 63L205 68L210 68L210 63L205 63L205 57L199 57L199 63L193 63L193 57L188 57z"/>
<path style="fill:#cccccc; stroke:none;" d="M193 57L193 63L199 63L199 57L193 57M205 57L205 63L211 63L211 68L216 68L216 63L211 63L211 57L205 57z"/>
<path style="fill:#ffffff; stroke:none;" d="M211 57L211 63L216 63L216 57L211 57z"/>
<path style="fill:#cccccc; stroke:none;" d="M217 57L217 63L222 63L222 57L217 57z"/>
<path style="fill:#ffffff; stroke:none;" d="M222 57L222 63L228 63L228 69L234 69L234 74L240 74L240 69L234 69L234 63L240 63L240 57L234 57L234 63L228 63L228 57L222 57z"/>
<path style="fill:#cccccc; stroke:none;" d="M228 57L228 63L234 63L234 57L228 57M240 57L240 63L245 63L245 57L240 57M252 57L252 63L257 63L257 68L263 68L263 63L269 63L269 68L274 68L274 63L269 63L269 57L263 57L263 63L257 63L257 57L252 57z"/>
<path style="fill:#ffffff; stroke:none;" d="M257 57L257 63L263 63L263 57L257 57M269 57L269 63L275 63L275 68L280 68L280 63L275 63L275 57L269 57z"/>
<path style="fill:#cccccc; stroke:none;" d="M275 57L275 63L280 63L280 57L275 57z"/>
<path style="fill:#ffffff; stroke:none;" d="M281 57L281 63L286 63L286 57L281 57z"/>
<path style="fill:#cccccc; stroke:none;" d="M286 57L286 63L292 63L292 69L286 69L286 74L292 74L292 69L298 69L298 74L304 74L304 69L298 69L298 63L304 63L304 57L298 57L298 63L292 63L292 57L286 57z"/>
<path style="fill:#ffffff; stroke:none;" d="M292 57L292 63L298 63L298 57L292 57M304 57L304 63L310 63L310 57L304 57M316 57L316 63L321 63L321 57L316 57z"/>
<path style="fill:#cccccc; stroke:none;" d="M321 57L321 63L327 63L327 69L333 69L333 63L339 63L339 57L333 57L333 63L327 63L327 57L321 57z"/>
<path style="fill:#ffffff; stroke:none;" d="M327 57L327 63L333 63L333 57L327 57M339 57L339 63L344 63L344 57L339 57M350 57L350 63L356 63L356 69L362 69L362 63L356 63L356 57L350 57z"/>
<path style="fill:#cccccc; stroke:none;" d="M356 57L356 63L362 63L362 57L356 57M95 63L95 68L100 68L100 63L95 63M106 63L106 68L111 68L111 63L106 63M118 63L118 68L123 68L123 63L118 63z"/>
<path style="fill:#ffffff; stroke:none;" d="M135 63L135 69L141 69L141 63L135 63z"/>
<path style="fill:#cccccc; stroke:none;" d="M153 63L153 68L158 68L158 63L153 63z"/>
<path style="fill:#ffffff; stroke:none;" d="M159 63L159 68L164 68L164 63L159 63M170 63L170 69L176 69L176 63L170 63M182 63L182 68L187 68L187 63L182 63M217 63L217 68L222 68L222 63L217 63z"/>
<path style="fill:#cccccc; stroke:none;" d="M223 63L223 68L228 68L228 63L223 63M234 63L234 69L240 69L240 63L234 63M246 63L246 68L251 68L251 63L246 63M281 63L281 68L286 68L286 63L281 63z"/>
<path style="fill:#ffffff; stroke:none;" d="M287 63L287 68L292 68L292 63L287 63M298 63L298 69L304 69L304 63L298 63M310 63L310 68L315 68L315 63L310 63M322 63L322 68L327 68L327 63L322 63M333 63L333 68L338 68L338 63L333 63M345 63L345 68L350 68L350 63L345 63z"/>
<path style="fill:#cccccc; stroke:none;" d="M89 69L89 74L94 74L94 69L89 69M100 69L100 74L106 74L106 69L100 69M112 69L112 74L117 74L117 69L112 69M124 69L124 74L129 74L129 69L124 69z"/>
<path style="fill:#ffffff; stroke:none;" d="M141 69L147 73L147 69L141 69M153 69L153 74L158 74L158 69L153 69M164 69L164 74L170 74L170 69L164 69M176 69L176 74L181 74L181 69L176 69M188 69L188 74L193 74L193 69L188 69M199 69L199 74L205 74L205 69L199 69M211 69L211 74L216 74L216 69L211 69z"/>
<path style="fill:#cccccc; stroke:none;" d="M217 69L217 74L222 74L222 69L217 69z"/>
<path style="fill:#ffffff; stroke:none;" d="M222 69L222 74L228 74L228 69L222 69z"/>
<path style="fill:#cccccc; stroke:none;" d="M240 69L240 74L245 74L245 69L240 69M252 69L252 74L257 74L257 69L252 69M263 69L263 74L269 74L269 69L263 69M275 69L275 74L280 74L280 69L275 69z"/>
<path style="fill:#ffffff; stroke:none;" d="M281 69L281 74L286 74L286 69L281 69M292 69L292 74L298 74L298 69L292 69M304 69L304 74L309 74L309 69L304 69M316 69L316 74L321 74L321 69L316 69M327 69L327 74L333 74L333 69L327 69M339 69L339 74L344 74L344 69L339 69M351 69L351 74L356 74L356 69L351 69z"/>
<path style="fill:#ffb566; stroke:none;" d="M135.015 72.7029C126.45 75.6634 124.712 85.541 127.735 93C133.395 106.962 145.585 128.797 157.093 138.61C161.838 142.655 169.796 145.738 175.96 143.258C185.023 139.611 183.167 125.494 181.471 118C177.912 102.269 168.24 87.336 155 78.206C149.522 74.4283 141.862 70.3361 135.015 72.7029z"/>
<path style="fill:#cccccc; stroke:none;" d="M71 75L71 80L77 80L77 75L71 75M83 75L83 80L88 80L88 75L83 75M94 75L94 80L89 80L89 86L94 86L94 92L89 92L89 98L94 98L94 103L100 103L100 98L106 98L106 103L112 103L112 98L117 98L117 92L112 92L112 86L117 86L117 80L112 80L112 75L106 75L106 80L100 80L100 75L94 75M118 75L118 80L123 80L123 75L118 75z"/>
<path style="fill:#ffffff; stroke:none;" d="M158 75L158 80L164 80L164 86L170 86L170 92L176 92L176 97L181 97L181 92L176 92L176 86L181 86L181 81L176 81L176 86L170 86L170 80L176 80L176 75L170 75L170 80L164 80L164 75L158 75M182 75L182 80L187 80L187 75L182 75M193 75L193 80L199 80L199 86L193 86L193 81L188 81L188 86L193 86L193 92L188 92L188 97L193 97L193 92L199 92L199 98L193 98L193 103L199 103L199 98L203 98L204 92L199 92L199 86L205 86L210 75L205 75L205 80L199 80L199 75L193 75z"/>
<path style="fill:#feff99; stroke:none;" d="M213 75.6119C199.412 78.7629 201.057 113.265 203.279 124C204.329 129.075 209.383 134.65 214.999 133.383C230.626 129.86 231.053 99.5831 227.79 88C226.013 81.6897 220.57 73.8564 213 75.6119z"/>
<path style="fill:#ffffff; stroke:none;" d="M228 75L228 80L224 80L228 92L234 92L234 98L240 98L240 92L234 92L234 86L240 86L240 80L234 80L234 75L228 75z"/>
<path style="fill:#cccccc; stroke:none;" d="M246 75L246 80L251 80L251 75L246 75M257 75L257 80L252 80L252 86L257 86L257 91L262 86L257 86L257 80L263 80L263 85L280 81L280 80L275 80L275 75L269 75L269 80L263 80L263 75L257 75M281 75L281 80L286 80L286 75L281 75z"/>
<path style="fill:#ffffff; stroke:none;" d="M287 75L287 80L292 80L289 86L292 98L289 98L288 103L292 103L292 98L298 98L298 103L304 103L304 98L310 98L310 92L315 92L315 86L310 86L310 92L304 92L304 86L309 86L309 81L304 81L304 86L298 86L298 80L304 80L304 75L298 75L298 80L292 80L292 75L287 75z"/>
<path style="fill:#cccccc; stroke:none;" d="M292 75L292 80L298 80L298 75L292 75z"/>
<path style="fill:#ffffff; stroke:none;" d="M310 75L310 80L315 80L315 75L310 75M321 75L321 80L316 80L316 86L321 86L321 92L316 92L316 98L321 98L321 103L327 103L327 98L333 98L333 103L339 103L339 98L344 98L344 92L339 92L339 86L344 86L344 80L339 80L339 75L333 75L333 80L327 80L327 75L321 75M345 75L345 80L350 80L350 75L345 75M356 75L356 80L350 80L350 86L345 86L345 92L350 92L350 98L356 98L356 103L362 103L362 98L356 98L356 92L362 92L362 86L356 86L356 80L362 80L362 75L356 75M71 80L71 86L77 86L77 92L71 92L71 98L77 98L77 92L83 92L83 86L77 86L77 80L71 80M94 80L94 86L100 86L100 92L94 92L94 98L100 98L100 92L106 92L106 98L112 98L112 92L106 92L106 86L112 86L112 80L106 80L106 86L100 86L100 80L94 80z"/>
<path style="fill:#cccccc; stroke:none;" d="M158 80L164 85L164 80L158 80M170 80L170 86L176 86L176 80L170 80M193 80L193 86L199 86L199 80L193 80M228 80L228 86L234 86L234 80L228 80z"/>
<path style="fill:#ffffff; stroke:none;" d="M257 80L257 86L263 86L263 80L257 80z"/>
<path style="fill:#cccccc; stroke:none;" d="M286 80C286.584 83.9705 288.029 85.4164 292 86L292 80L286 80M298 80L298 86L304 86L304 80L298 80M321 80L321 86L327 86L327 92L321 92L321 98L327 98L327 92L333 92L333 98L339 98L339 92L333 92L333 86L339 86L339 80L333 80L333 86L327 86L327 80L321 80M356 80L356 86L362 86L362 80L356 80M77 81L77 86L82 86L82 81L77 81M124 81L124 86L126 86L127 81L124 81M240 81L240 86L245 86L245 81L240 81z"/>
<path style="fill:#ffb566; stroke:none;" d="M271 81.4792C255.322 84.7162 246.18 107.633 246.004 122C245.89 131.274 246.377 142.954 259 140.532C266.334 139.124 269.409 133.817 273.181 128C279.717 117.919 289.419 106.381 290.775 94C292.01 82.7335 279.791 79.6641 271 81.4792z"/>
<path style="fill:#cccccc; stroke:none;" d="M71 86L71 92L77 92L77 86L71 86M83 86L83 92L88 92L88 86L83 86M118 86L118 92L123 92L123 86L118 86M164 86L176 105L177 105L181 103L181 98L176 98L176 92L170 92L170 86L164 86z"/>
<path style="fill:#ffffff; stroke:none;" d="M182 86L182 92L187 92L187 86L182 86z"/>
<path style="fill:#cccccc; stroke:none;" d="M199 86L199 92L204 92L204 86L199 86M234 86L234 92L240 92L240 86L234 86M246 86L246 92L251 92L251 86L246 86M292 86L292 92L298 92L298 98L304 98L304 92L298 92L298 86L292 86M304 86L304 92L310 92L310 86L304 86M350 86L350 92L356 92L356 86L350 86M77 92L77 98L83 98L83 92L77 92M123 92L123 98L129 98L129 103L133 103C130.661 97.9667 129.081 92.4846 123 92M193 92L193 98L199 98L199 92L193 92M229 92L229 98L234 98L234 92L229 92M240 92L240 97L245 97L245 92L240 92M252 92L252 97L257 92L252 92M291 92L290 98L291 92M356 92L356 98L362 98L362 92L356 92M71 98L71 103L77 103L77 98L71 98M83 98L83 103L88 103L88 98L83 98M118 98L118 103L123 103L123 98L118 98z"/>
<path style="fill:#ffffff; stroke:none;" d="M182 98L182 103L187 103L187 98L182 98z"/>
<path style="fill:#cccccc; stroke:none;" d="M234 98L234 103L240 103L240 98L234 98M246 98L246 103L251 104C251.33 99.7038 250.325 98.3459 246 98z"/>
<path style="fill:#ffffff; stroke:none;" d="M310 98L310 103L315 103L315 98L310 98M345 98L345 103L350 103L350 98L345 98z"/>
<path style="fill:#cccccc; stroke:none;" d="M77 104L77 109L82 109L82 104L77 104M89 104L89 109L94 109L94 104L89 104M100 104L100 109L94 109L94 115L89 115L89 121L94 121L94 127L100 127L100 121L106 121L106 115L112 115L112 121L117 121L117 115L112 115L112 109L106 109L106 104L100 104M112 104L112 109L117 109L117 104L112 104M124 104L124 109L129 109L129 115L123 115L123 121L118 121L118 127L123 127L123 121L129 121L129 127L135 127L135 133L141 133L141 127L147 127L147 133L152 133C149.974 127.467 147.222 121.981 141 121L142 115L135 115L135 109L129 109L129 104L124 104z"/>
<path style="fill:#ffffff; stroke:none;" d="M129 104L129 109L135 109L135 115L141 115C137.92 109.907 135.427 104.507 129 104M177 104L181 109L181 104L177 104M188 104L188 109L193 109L193 104L188 104M199 104L199 109L193 109L193 115L188 115L188 121L193 121L193 127L199 127L199 133L205 133L205 127L199 127L199 121L203 121L203 115L199 115L199 109L203 109L203 104L199 104z"/>
<path style="fill:#cccccc; stroke:none;" d="M229 104L229 109L234 109L234 115L228 115L228 121L223 127L228 127L228 133L222 133L222 138L228 138L228 133L234 133L234 138L240 138L240 133L246 133C246 126.542 248.594 115.685 240 115L240 109L234 109L234 104L229 104M240 104L240 109L245 109L245 104L240 104M282 115L286 115L286 121L281 121L281 127L286 127L286 121L292 121L292 127L287 127L287 132L292 132L292 127L298 127L298 133L304 133L304 127L310 127L310 121L304 121L304 115L298 115L298 109L292 109L292 104C285.882 104.953 283.838 109.532 282 115z"/>
<path style="fill:#ffffff; stroke:none;" d="M292 104L292 109L298 109L298 104L292 104M304 104L304 109L309 109L309 104L304 104M316 104L316 109L321 109L321 104L316 104M327 104L327 109L321 109L321 115L316 115L316 121L321 115L327 115L327 109L333 109L333 115L344 121L344 115L339 115L339 109L333 109L333 104L327 104M339 104L339 109L344 109L344 104L339 104M351 104L351 109L356 109L356 104L351 104z"/>
<path style="fill:#cccccc; stroke:none;" d="M71 109L71 115L77 115L77 121L71 121L71 127L77 127L77 121L83 121L83 127L88 127L88 121L83 121L83 115L77 115L77 109L71 109z"/>
<path style="fill:#ffffff; stroke:none;" d="M100 109L100 115L94 115L94 121L100 121L100 115L106 115L106 109L100 109z"/>
<path style="fill:#cccccc; stroke:none;" d="M199 109L199 115L203 115L203 109L199 109z"/>
<path style="fill:#ffffff; stroke:none;" d="M228 115L234 115L234 109C229.703 109.343 228.489 110.751 228 115z"/>
<path style="fill:#cccccc; stroke:none;" d="M246 109L246 115L247 115L248 109L246 109z"/>
<path style="fill:#ffffff; stroke:none;" d="M286 109L286 115L292 115L292 121L298 121L298 127L304 127L304 121L298 121L298 115L292 115L292 109L286 109M298 109L298 115L304 115L304 109L298 109z"/>
<path style="fill:#cccccc; stroke:none;" d="M327 109L327 115L333 115L333 109L327 109z"/>
<path style="fill:#ffffff; stroke:none;" d="M356 109L356 115L350 115L350 121L345 121L345 127L350 127L350 121L356 121L356 127L362 127L362 121L356 121L356 115L362 115L362 109L356 109z"/>
<path style="fill:#cccccc; stroke:none;" d="M83 110L83 115L88 115L88 110L83 110M118 110L118 115L123 115L123 110L118 110z"/>
<path style="fill:#ffffff; stroke:none;" d="M182 110L182 115L187 115L187 110L182 110M310 110L310 115L315 115L315 110L310 110M345 110L345 115L350 115L350 110L345 110M71 115L71 121L77 121L77 115L71 115M106 115L106 121L112 121L112 115L106 115M129 115L129 121L135 121L135 127L141 127L141 121L135 121L135 115L129 115z"/>
<path style="fill:#cccccc; stroke:none;" d="M193 115L193 121L199 121L199 115L193 115z"/>
<path style="fill:#ffffff; stroke:none;" d="M227 115L226 121L227 115M234 115L234 121L228 121L228 127L234 127L234 133L240 133L240 127L245 127L245 121L240 121L240 115L234 115M281 115L281 121L286 121L286 115L281 115M304 115L304 121L310 121L310 115L304 115z"/>
<path style="fill:#cfcfcf; stroke:none;" d="M321 115L321 117L327 116L321 115z"/>
<path style="fill:#feff99; stroke:none;" d="M327 115.599C318.911 117.566 313.925 123.474 308 128.83C299.584 136.439 287.687 143.827 282.14 154C275.192 166.741 284.393 177.908 298 175.192C315.472 171.705 331.695 155.933 338.829 140C343.873 128.738 344.738 111.284 327 115.599z"/>
<path style="fill:#cfcfcf; stroke:none;" d="M335 115L335 116L339 116L335 115z"/>
<path style="fill:#cccccc; stroke:none;" d="M356 115L356 121L362 121L362 115L356 115z"/>
<path style="fill:#ffffff; stroke:none;" d="M141 116L141 121L145 121L141 116z"/>
<path style="fill:#e2e2e2; stroke:none;" d="M280 116L278 120L278 121L280 132L275 132L275 126C270.378 129.959 263.486 137.836 263 144L269 144L269 139L275 139L275 144L280 144L280 150L275 150L275 156L280 159L281 159L281 150C287.546 149.506 291.282 145.45 292 139C296.365 138.66 297.66 137.365 298 133L287 132L287 127L286 127L286 132L281 132L280 116z"/>
<path style="fill:#ffffff; stroke:none;" d="M77 121L77 127L83 127L83 121L77 121M100 121L100 127L106 127L106 121L100 121M123 121L123 127L129 127L129 121L123 121M182 121L182 127L187 127L187 121L182 121z"/>
<path style="fill:#cccccc; stroke:none;" d="M199 121L199 127L204 127L203 121L199 121M234 121L234 127L240 127L240 121L234 121z"/>
<path style="fill:#ffffff; stroke:none;" d="M275 127L280 127L280 121L275 127M286 121L286 127L292 127L292 121L286 121M310 121L310 127L315 121L310 121z"/>
<path style="fill:#cccccc; stroke:none;" d="M350 121L350 127L356 127L356 121L350 121z"/>
<path style="fill:#ffffff; stroke:none;" d="M71 127L71 133L77 133L77 127L71 127M83 127L83 132L88 132L88 127L83 127M94 127L94 130L100 131L100 127L94 127M118 127L118 133L123 133L123 127L118 127M129 127L129 133L135 133L135 127L129 127M141 127L141 133L147 133L147 127L141 127z"/>
<path style="fill:#cccccc; stroke:none;" d="M183 127L183 133L187 133L187 127L183 127M193 127L193 133L199 133L199 127L193 127z"/>
<path style="fill:#ffffff; stroke:none;" d="M222 127L222 133L217 133L217 138L222 138L222 133L228 133L228 127L222 127z"/>
<path style="fill:#cccccc; stroke:none;" d="M275 127L275 132L280 132L280 127L275 127z"/>
<path style="fill:#ffffff; stroke:none;" d="M281 127L281 132L286 132L286 127L281 127M292 127L292 133L298 133L298 127L292 127M304 127L304 132L310 127L304 127z"/>
<path style="fill:#cccccc; stroke:none;" d="M345 127L345 132L350 132L350 127L345 127M356 127L356 133L362 133L362 127L356 127z"/>
<path style="fill:#dcdcdc; stroke:none;" d="M221 129L218 133L222 133L221 129z"/>
<path style="fill:#feff99; stroke:none;" d="M94.0046 131.067C84.4467 135.496 90.0722 143.937 96.0008 148.391C106.657 156.397 119.732 161.234 132 166.13C136.288 167.842 142.893 170.714 147.427 168.142C154.636 164.053 145.484 155.559 142 152.899C131.783 145.098 120.92 138.423 109 133.576C104.997 131.949 98.2321 129.108 94.0046 131.067z"/>
<path style="fill:#ffffff; stroke:none;" d="M77 133L77 138L82 138L82 133L77 133M124 133L124 138L129 138L129 133L124 133M135 133L135 138L141 138L141 133L135 133M147 133L147 138L152 138L152 133L147 133z"/>
<path style="fill:#cccccc; stroke:none;" d="M188 133L188 138L193 138L193 133L188 133M199 133L199 138L205 138L205 133L199 133z"/>
<path style="fill:#ffffff; stroke:none;" d="M228 133L228 138L234 138L234 133L228 133M240 133L240 138L245 138L245 133L240 133M275 133L275 138L280 138L280 133L275 133M286 133L286 138L292 138L292 133L286 133M298 133L298 137L303 133L298 133z"/>
<path style="fill:#cccccc; stroke:none;" d="M341 133L340 138L344 138L344 133L341 133M351 133L351 138L356 138L356 133L351 133M211 134L211 138L216 138L216 134L211 134z"/>
<path style="fill:#ffffff; stroke:none;" d="M71 139L71 144L77 144L77 139L71 139M129 139L129 144L135 144C135.343 148.297 136.751 149.511 141 150L152 162L152 156L147 156L147 150L152 150L152 144L147 144L147 139L141 139L141 144L135 144L135 139L129 139M153 139L153 144L158 144L158 150L153 150L153 156L158 156L158 162L153 162L153 167L158 167L158 162L164 162L164 156L170 156L170 150L176 153L181 151L181 150L176 150L176 144L170 144L170 150L164 150L164 144L158 144L158 139L153 139z"/>
<path style="fill:#cccccc; stroke:none;" d="M182 139L182 144L187 144L187 139L182 139M193 139L193 144C189.806 144.013 187.729 143.597 187 147L199 144L199 139L193 139M205 139L205 143L211 143L211 139L205 139M217 139L217 143L240 146L240 144L234 144L234 139L228 139L228 143L222 143L222 139L217 139z"/>
<path style="fill:#ffffff; stroke:none;" d="M222 139L222 143L228 143L228 139L222 139M234 139L234 144L240 144L240 139L234 139M269 139L269 144L263 144L263 140L257 144L263 144L263 150L257 150L257 156L263 156C263.947 162.013 269.116 166.096 275 167L275 162C278.911 161.348 279.7 159.864 280 156L275 156L275 150L280 150L280 144L275 144L275 139L269 139M281 139L281 144L286 144L286 139L281 139M292 139L292 143L296 139L292 139z"/>
<path style="fill:#cccccc; stroke:none;" d="M345 139L345 144L350 144L350 139L345 139M356 139L356 144L350 144L350 150L345 150L345 156L350 156L350 162L356 162L356 167L362 167L362 162L356 162L356 156L362 156L362 150L356 150L356 144L362 144L362 139L356 139M158 140L158 144L164 144L164 150L170 150L170 144L158 140M252 141L252 144L257 144L257 141L252 141z"/>
<path style="fill:#d7d7c2; stroke:none;" d="M338 141L337 144L338 141z"/>
<path style="fill:#ffb566; stroke:none;" d="M182 224L194 230L194 231C190.523 234.172 187.994 238.094 183.996 240.751C181.428 242.457 176.871 243.054 175.028 245.563C165.125 259.038 189.132 262.93 197 263L208 214C202.627 216.125 199.687 224.261 194.791 225.424C185.575 227.612 186.202 217.575 189.934 213.015C197.076 204.29 206.63 197.789 218 196.209C231.29 194.362 240.538 203.662 252 208C245.387 222.836 238.445 212.006 227 211C232.582 232.096 227.108 249.034 227.083 270C227.078 274.483 232.705 284.745 237 286L236.788 276.418L246.973 269.529L251.363 254L264 231C260.033 229.429 249.571 225.849 249.113 220.826C248.811 217.511 252.655 213.89 254 211C262.197 215.496 276.981 226.035 286.566 218.86C290.302 216.064 289.002 209.061 289 205C288.994 188.896 280.676 176.327 269.675 165C244.475 139.053 195.366 133.623 168.039 159.174C149.816 176.212 142.521 200.819 144.044 224.999C144.563 233.233 150.83 231.03 157 231.001C166.347 230.956 177.045 234.37 182 224z"/>
<path style="fill:#cccccc; stroke:none;" d="M71 144L71 150L77 150L77 156L71 156L71 162L77 162L77 156L83 156L83 162L88 162L88 156L83 156L83 150L77 150L77 144L71 144M130 144L130 145L135 148L135 144L130 144M141 144L141 150L147 150L147 144L141 144M153 144L153 150L158 150L158 144L153 144M257 144L257 150L263 150L263 144L257 144M269 144L269 150L263 150L263 156L269 156L269 162L275 162L275 156L269 156L269 150L275 150L275 144L269 144z"/>
<path style="fill:#ffffff; stroke:none;" d="M336 144L328 156L333 156L333 162L339 162L339 156L333 156L333 150L339 150L339 144L336 144z"/>
<path style="fill:#cccccc; stroke:none;" d="M339 144L339 150L344 150L344 144L339 144z"/>
<path style="fill:#ffffff; stroke:none;" d="M356 144L356 150L362 150L362 144L356 144M77 145L77 150L82 150L82 145L77 145z"/>
<path style="fill:#cccccc; stroke:none;" d="M176 145L176 150L182 150L181 145L176 145z"/>
<path style="fill:#ffffff; stroke:none;" d="M240 145L245 148L245 145L240 145z"/>
<path style="fill:#cccccc; stroke:none;" d="M94 147L89 150L89 156L94 156L94 162L100 162L100 156L106 156L106 162L112 162C111.481 155.436 105.406 153.513 100 151L100 156L94 156L94 150L98 150L98 149L94 147z"/>
<path style="fill:#ffffff; stroke:none;" d="M71 150L71 156L77 156L77 150L71 150M94 150L94 156L100 156L100 150L94 150z"/>
<path style="fill:#cdcdcb; stroke:none;" d="M138 150L138 151L141 152L138 150z"/>
<path style="fill:#cccccc; stroke:none;" d="M147 150L147 156L152 156L152 150L147 150M158 150L158 156L164 156L164 150L158 150M170 150L170 156L164 156L164 162L159 162L159 167C164.834 165.289 174.97 156.129 176 150L170 150M250 151L250 152L257 155L257 150L250 151z"/>
<path style="fill:#ffffff; stroke:none;" d="M281 150L281 155L282 155L285 150L281 150z"/>
<path style="fill:#cccccc; stroke:none;" d="M333 150L333 156L339 156L339 150L333 150z"/>
<path style="fill:#ffffff; stroke:none;" d="M350 150L350 156L356 156L356 150L350 150M77 156L77 162L83 162L83 156L77 156M100 156L100 162L106 162L106 156L100 156z"/>
<path style="fill:#cccccc; stroke:none;" d="M153 156L153 162L158 162L158 156L153 156M259 156L259 157L263 159L259 156M327 162L321 162L321 167L327 167L327 162L333 162L333 156C328.635 156.34 327.34 157.635 327 162M339 156L339 162L344 162L344 156L339 156z"/>
<path style="fill:#ffffff; stroke:none;" d="M356 156L356 162L362 162L362 156L356 156M112 157L112 162L117 162L112 157z"/>
<path style="fill:#f5f5f5; stroke:none;" d="M325 158L323 162L327 162L327 158L325 158z"/>
<path style="fill:#cccccc; stroke:none;" d="M279 161L275 162L275 167L271 167L271 168L274 171L275 168L280 168L279 161z"/>
<path style="fill:#ffffff; stroke:none;" d="M71 162L71 167L77 167L77 162L71 162M83 162L83 167L88 167L88 162L83 162M94 162L94 167L100 167L100 162L94 162M106 162L106 167L112 167L112 162L106 162M118 162L118 167L123 167L123 162L118 162z"/>
<path style="fill:#cccccc; stroke:none;" d="M333 162L333 167L339 167L339 162L333 162M345 162L345 167L350 167L350 162L345 162z"/>
<path style="fill:#ffffff; stroke:none;" d="M77 168L77 173L82 173L82 168L77 168M89 168L89 173L94 173L94 168L89 168M100 168L100 173L94 173L94 179L89 179L89 185L94 185L94 179L100 179L100 185L106 185L106 188L112 188L112 185L117 185L117 179L112 179L112 173L106 173L106 168L100 168M112 168L112 173L117 173L117 168L112 168M124 168L124 173L129 173L129 168L124 168M135 168L135 173L129 173L129 179L123 179L123 185L118 185L118 190L123 190L123 185L129 185L129 191L135 191L135 197L141 197L141 202C137.186 202.661 136.43 204.259 136 208L141 208L141 214L135 214L135 209L123 214L123 220L129 220L129 226L135 226L135 220L141 220L141 226L144 226L144 220L141 220L144 208L141 208L141 203L146 197L141 197L141 191L147 191L147 185C150.814 184.339 151.57 182.741 152 179L147 179L147 185L141 185L141 179L146 179L146 174L141 174L141 179L135 179L135 173L141 173C140.339 169.186 138.741 168.43 135 168M147 173L152 173L152 168C148.526 168.577 147.577 169.526 147 173z"/>
<path style="fill:#cccccc; stroke:none;" d="M153 168L153 173L158 173L158 168L153 168z"/>
<path style="fill:#ffffff; stroke:none;" d="M275 168C275.577 171.474 276.526 172.423 280 173L280 168L275 168z"/>
<path style="fill:#e4e4e4; stroke:none;" d="M280 168L277 173L280 179L281 179L281 174L285 174L285 173L280 168z"/>
<path style="fill:#cccccc; stroke:none;" d="M316 168L316 173L321 173L321 168L316 168M327 168L327 173L321 173L321 179L316 179L316 185L321 185L321 191L316 191L316 194L321 194L321 191L327 191L327 194L333 194L333 191L339 191C339.648 194.922 341.236 195.985 345 197L344 191L339 191L339 185L344 185L344 179L339 179L339 173L333 173L333 168L327 168M339 168L339 173L344 173L344 168L339 168M351 168L351 173L356 173L356 168L351 168M141 169L141 173L147 173L147 169L141 169z"/>
<path style="fill:#ffffff; stroke:none;" d="M71 173L71 179L77 179L77 185L71 185L71 191L77 191L77 195L78 195L79 191L77 185L83 185L83 179L77 179L77 173L71 173z"/>
<path style="fill:#cccccc; stroke:none;" d="M100 173L100 179L106 179L106 185L112 185L112 179L106 179L106 173L100 173M135 173L135 179L141 179L141 173L135 173z"/>
<path style="fill:#ffffff; stroke:none;" d="M327 173L327 179L321 179L321 185L327 185L327 191L333 191L333 185L339 185L339 179L333 179L333 173L327 173z"/>
<path style="fill:#cccccc; stroke:none;" d="M356 173L356 179L350 179L350 185L345 185L345 191L350 191L350 185L356 185L356 191L362 191L362 185L356 185L356 179L362 179L362 173L356 173z"/>
<path style="fill:#ffffff; stroke:none;" d="M83 174L83 179L88 179L88 174L83 174M118 174L118 179L123 179L123 174L118 174z"/>
<path style="fill:#cccccc; stroke:none;" d="M147 174L147 179L152 179L152 174L147 174z"/>
<path style="fill:#ffffff; stroke:none;" d="M281 174L281 179L286 179L286 185L292 185L292 191L287 191L292 197L292 191L298 191L298 196L304 196L304 191L310 191L310 185L304 185L304 179L298 179L298 175L292 176L292 179L286 179L286 174L281 174z"/>
<path style="fill:#cccccc; stroke:none;" d="M286 174L286 179L292 179L286 174M298 175L298 179L304 179L304 174L298 175M310 174L310 179L315 179L315 174L310 174M345 174L345 179L350 179L350 174L345 174M71 179L71 185L77 185L77 179L71 179M94 179L94 185L100 185L100 179L94 179M129 179L129 185L135 185L135 191L141 191L141 185L135 185L135 179L129 179M141 179L141 185L147 185L147 179L141 179z"/>
<path style="fill:#78736e; stroke:none;" d="M211 179L211 180L215 180L211 179z"/>
<path style="fill:#cccccc; stroke:none;" d="M281 179C283.55 184.212 285.655 190.495 292 191L292 185L286 185L286 179L281 179M292 179L292 185L298 185L298 191L304 191L304 185L298 185L298 179L292 179M304 179L304 185L310 185L310 179L304 179M327 179L327 185L333 185L333 179L327 179z"/>
<path style="fill:#ffffff; stroke:none;" d="M356 179L356 185L362 185L362 179L356 179z"/>
<path style="fill:#1e3871; stroke:none;" d="M209.148 181.028C200.988 185.844 209.259 198.928 217.772 193.061C225.606 187.661 217.011 176.388 209.148 181.028z"/>
<path style="fill:#8c7a70; stroke:none;" d="M205 184L205 188L206 188L205 184z"/>
<path style="fill:#cccccc; stroke:none;" d="M123 185L123 191L135 196L135 191L129 191L129 185L123 185M147 185L147 191L141 191L141 197C147.431 196.499 148.982 190.733 150 185L147 185M310 185L310 191L315 191L315 185L310 185z"/>
<path style="fill:#ffffff; stroke:none;" d="M350 185L350 191L356 191L356 185L350 185z"/>
<path style="fill:#e9bf93; stroke:none;" d="M89 186L89 187L97 187L89 186z"/>
<path style="fill:#ffb566; stroke:none;" d="M85.0008 187.653C72.9419 191.46 78.1263 207.227 86.0154 212.451C96.8061 219.597 115.203 218.327 126.83 213.815C136.512 210.058 140.779 197.766 129.996 192.314C119.791 187.154 95.9865 184.185 85.0008 187.653z"/>
<path style="fill:#cccccc; stroke:none;" d="M71 191L71 197L77 197L77 202L71 202L71 208L77 208L77 214L71 214L71 220L77 220L77 226L71 226L71 231L77 231L77 226L83 226L83 231L88 231L88 226L83 226L83 220L88 220L88 214L83 214L84 210L81 207L77 208L77 191L71 191M292 191L292 197L289 197L289 202L292 202L292 197L297 198L298 191L292 191M304 191L304 195L312 195L312 194L310 191L304 191z"/>
<path style="fill:#ffffff; stroke:none;" d="M321 191L321 194L327 194L327 191L321 191M333 191L339 195L339 191L333 191M356 191L356 197L362 197L362 191L356 191z"/>
<path style="fill:#736e71; stroke:none;" d="M209.667 194.333L210.333 194.667L209.667 194.333z"/>
<path style="fill:#787474; stroke:none;" d="M214 194L214 195L217 195L214 194z"/>
<path style="fill:#e9bf93; stroke:none;" d="M312 194L312 195L336 195L312 194z"/>
<path style="fill:#ffb566; stroke:none;" d="M304 195.429C296.624 196.536 289.546 204.438 299.094 209.182C310.881 215.039 329.397 216.743 341.996 213.33C351.323 210.804 352.243 199.985 342.996 196.403C332.879 192.483 314.65 193.831 304 195.429z"/>
<path style="fill:#be976d; stroke:none;" d="M215 196L215 197L228 197L215 196z"/>
<path style="fill:#ffffff; stroke:none;" d="M71 197L71 202L77 202L77 197L71 197z"/>
<path style="fill:#cccccc; stroke:none;" d="M136 197L137 202L141 202L141 197L136 197z"/>
<path style="fill:#1e3871; stroke:none;" d="M209 213C208.992 225.485 204.837 237.291 200.831 249C199.601 252.595 195.844 259.778 198.117 263.486C199.957 266.487 205.895 266.599 209 267L216 244L217 244L214 269L227 274L229.996 236L227 210C231.72 211.831 239.048 217.657 243.961 217.404C247.778 217.208 251.628 211.776 249.914 208.185C247.744 203.638 240.346 201.249 236 199.579C218.282 192.772 198.173 199.024 187.639 215.001C183.846 220.754 189.969 228.832 196.405 224.954C201.189 222.071 204.008 216.148 209 213z"/>
<path style="fill:#fff3e7; stroke:none;" d="M292 197L292 202L289 202L289 208L292 208L296 197L292 197z"/>
<path style="fill:#ffffff; stroke:none;" d="M351 197L351 202L356 202L356 197L351 197z"/>
<path style="fill:#716f74; stroke:none;" d="M208.667 198.333L209.333 198.667L208.667 198.333z"/>
<path style="fill:#a9886b; stroke:none;" d="M233.667 198.333L234.333 198.667L233.667 198.333z"/>
<path style="fill:#85756e; stroke:none;" d="M235.667 199.333L236.333 199.667L235.667 199.333z"/>
<path style="fill:#89879e; stroke:none;" d="M272 202L272 203L278 203L272 202z"/>
<path style="fill:#ffffff; stroke:none;" d="M77 203C77.0642 205.993 76.9461 207.346 80 208L77 203z"/>
<path style="fill:#cccccc; stroke:none;" d="M141 203L141 208L144 208L144 203L141 203z"/>
<path style="fill:#4070d6; stroke:none;" d="M271.059 203.742C262.273 207.399 268.816 221.057 277.895 217.257C287.553 213.214 280.43 199.842 271.059 203.742z"/>
<path style="fill:#cccccc; stroke:none;" d="M292 203L292 208L289 208L289 214L300 227L304 226L304 220L310 220L310 214L304 214L304 210L298 209L298 214L292 214L292 208L296 208L292 203z"/>
<path style="fill:#ffffff; stroke:none;" d="M356 203L356 208L350 208L350 214L345 214L345 220L350 220L350 226L356 226L356 231L362 231L362 226L356 226L356 220L362 220L362 214L356 214L356 208L362 208L362 203L356 203z"/>
<path style="fill:#cccccc; stroke:none;" d="M135 207L134 208L135 214L141 214L141 208L135 207z"/>
<path style="fill:#ffffff; stroke:none;" d="M71 208L71 214L77 214L77 208L71 208z"/>
<path style="fill:#706d70; stroke:none;" d="M251 208L251 211L252 211L251 208z"/>
<path style="fill:#ffffff; stroke:none;" d="M292 208L292 214L298 214L298 208L292 208z"/>
<path style="fill:#cccccc; stroke:none;" d="M356 208L356 214L362 214L362 208L356 208z"/>
<path style="fill:#887670; stroke:none;" d="M227.667 210.333L228.333 210.667L227.667 210.333z"/>
<path style="fill:#ffffff; stroke:none;" d="M83 211C83.6544 214.054 85.0066 213.936 88 214L88 213L83 211z"/>
<path style="fill:#a09a92; stroke:none;" d="M254.667 211.333L255.333 211.667L254.667 211.333z"/>
<path style="fill:#ffffff; stroke:none;" d="M304 211C304.729 214.403 306.806 213.987 310 214L304 211z"/>
<path style="fill:#cccccc; stroke:none;" d="M143 212L141 220L144 220L143 212z"/>
<path style="fill:#947e70; stroke:none;" d="M227 212L227 215L228 215L227 212z"/>
<path style="fill:#4070d6; stroke:none;" d="M264 231C259.799 245.175 249.044 252.871 249 269L263 264L268 253L267 261C271.063 259.839 278.543 258.028 280.397 253.786C282.673 248.575 279.117 242.272 280.773 237.148C282.858 230.7 299.353 234.325 299.252 225.906C299.216 222.859 295.909 218.512 292.91 217.863C288.308 216.869 282.894 220.898 278 220.62C270.907 220.219 260.296 210.956 254.184 212.851C238.69 217.655 257.902 229.315 264 231z"/>
<path style="fill:#8b776d; stroke:none;" d="M207 213L208 223L209 223L207 213z"/>
<path style="fill:#ffffff; stroke:none;" d="M77 214L77 220L83 220L83 214L77 214z"/>
<path style="fill:#e3e3e3; stroke:none;" d="M88 214L88 220L83 220L83 226L88 226L88 231L83 231L83 226L77 226L77 231L71 231L71 237L77 237L77 243L83 243L83 249L88 249L88 255L77 255L77 261L71 261L71 267L77 267L77 273L82 273L82 278L88 278L88 284L83 284L83 290L77 290L77 295L71 295L71 301L77 301L77 307L83 307L83 313L88 313L88 319L82 319L82 324L77 324L77 329L83 329L83 325L88 325L88 329L94 329L94 325L100 325L100 319L94 319L94 313L89 313L89 307L94 307L94 301L100 301L100 296L106 296L106 301L112 301L112 296L116 296L116 295L106 295L106 290L100 290L100 295L94 295L94 290L89 290L89 284L94 284L94 278L89 278L89 272L94 272L94 267L100 267L100 272L106 272L106 267L111 270L112 270L115 261C111.946 261.654 112.064 263.007 112 266L100 266L100 255L94 255L94 249L89 249L89 243L94 243L94 237L100 237L100 232L106 232L106 237L112 237L112 243L117 243L117 249L112 249L112 255L117 258L121 255L118 249L123 249L123 243L129 243L129 237L135 237L135 232L141 235L146 231L141 231L141 226L135 226L135 231L129 231L129 226L123 226L123 220L118 220L118 216L112 220L117 220L117 226L112 226L112 231L106 231L106 226L100 226L100 231L94 231L94 226L89 226L89 220L94 220C93.342 216.17 91.6298 215.113 88 214z"/>
<path style="fill:#cccccc; stroke:none;" d="M129 214L129 220L135 220L135 214L129 214z"/>
<path style="fill:#4070d6; stroke:none;" d="M165.044 214.671C155.406 217.496 160.048 232.41 169.895 229.424C178.914 226.688 174.3 211.959 165.044 214.671z"/>
<path style="fill:#ffffff; stroke:none;" d="M289 214L288 218L292 214L289 214M298 214L298 220L304 220L304 214L298 214M310 214L310 220L315 220L315 214L310 214M321 214L321 220L316 220L316 226L321 226L321 231L327 231L327 226L333 226L333 231L339 231L339 226L344 226L344 220L339 220L339 214L333 215L333 220L327 220L327 215L321 214z"/>
<path style="fill:#cccccc; stroke:none;" d="M350 214L350 220L356 220L356 214L350 214M122 215L118 216L118 220L123 220L122 215z"/>
<path style="fill:#b19993; stroke:none;" d="M261.667 215.333L262.333 215.667L261.667 215.333z"/>
<path style="fill:#cccccc; stroke:none;" d="M327 215L327 220L333 220L333 215L327 215M94 216L94 220L89 220L89 226L94 226L94 231L100 231L100 226L106 226L106 231L112 231L112 226L117 226L117 220L112 220L112 217L106 217L106 220L100 220L94 216z"/>
<path style="fill:#ffffff; stroke:none;" d="M100 217L100 220L106 220L106 217L100 217z"/>
<path style="fill:#6f7076; stroke:none;" d="M228.333 217.667L228.667 218.333L228.333 217.667z"/>
<path style="fill:#8b796d; stroke:none;" d="M243.667 218.333L244.333 218.667L243.667 218.333z"/>
<path style="fill:#9e9197; stroke:none;" d="M273 218L273 219L276 219L273 218z"/>
<path style="fill:#9cb1e6; stroke:none;" d="M288.667 218.333L289.333 218.667L288.667 218.333z"/>
<path style="fill:#a7918a; stroke:none;" d="M159.333 219.667L159.667 220.333L159.333 219.667z"/>
<path style="fill:#ffffff; stroke:none;" d="M71 220L71 226L77 226L77 220L71 220M94 220L94 226L100 226L100 220L94 220M106 220L106 226L112 226L112 220L106 220z"/>
<path style="fill:#cccccc; stroke:none;" d="M123 220L123 226L129 226L129 220L123 220M135 220L135 226L141 226L141 220L135 220z"/>
<path style="fill:#ffffff; stroke:none;" d="M304 220L304 226L310 226L310 220L304 220z"/>
<path style="fill:#cccccc; stroke:none;" d="M321 220L321 226L327 226L327 220L321 220M333 220L333 226L339 226L339 220L333 220M356 220L356 226L362 226L362 220L356 220z"/>
<path style="fill:#8496a1; stroke:none;" d="M175.333 221.667L175.667 222.333L175.333 221.667z"/>
<path style="fill:#686973; stroke:none;" d="M229 222L229 227L230 227L229 222z"/>
<path style="fill:#4070d6; stroke:none;" d="M182 224C172.087 237.734 157.958 226.657 145.09 233.044C138.815 236.158 134.246 244.829 144.17 247.164C147.885 248.039 152.308 244.666 156 244L151 252L151 253L175 258C170.333 243.277 185.905 241.465 194 231L182 224z"/>
<path style="fill:#cccccc; stroke:none;" d="M118 226L118 231L123 231L123 226L118 226M129 226L129 231L135 231L135 226L129 226M141 226L141 231L145 231L144 226L141 226z"/>
<path style="fill:#9a816a; stroke:none;" d="M193 226L193 227L196 227L193 226z"/>
<path style="fill:#ffffff; stroke:none;" d="M298 231L304 231L304 226L298 231M310 226L310 231L315 231L315 226L310 226M345 226L345 231L350 231L350 226L345 226z"/>
<path style="fill:#cb9f6d; stroke:none;" d="M230 227L230 241L231 241L230 227z"/>
<path style="fill:#ad9795; stroke:none;" d="M163 231L163 232L168 232L163 231z"/>
<path style="fill:#cccccc; stroke:none;" d="M77 232L77 237L82 237L82 232L77 232M89 232L89 237L94 237L94 232L89 232M100 232L100 237L94 237L94 243L89 243L89 249L94 249L94 255L100 255L100 261L106 261L106 266L112 266L112 261L119 259L117 255L112 255L112 249L117 249L117 243L112 243L112 237L106 237L106 232L100 232M112 232L112 237L117 237L117 232L112 232M124 232L124 237L129 237L129 232L124 232M135 232L135 237L129 237L129 243L123 243L123 249L118 249L118 255L122 256L123 249L129 251L147 251L151 249L150 246L141 249L142 245L135 243L135 237L142 236L141 232L135 232M286 237L284 235L283 235L281 255L286 249L292 249L292 243L286 243L286 237L292 237L292 232L286 237z"/>
<path style="fill:#ffffff; stroke:none;" d="M292 232L292 237L286 237L286 243L292 243L298 232L292 232z"/>
<path style="fill:#feff99; stroke:none;" d="M292 249C304.761 247.422 308.915 256.461 320.001 258.405C332.412 260.582 358.151 251.773 341.867 236.225C336.268 230.879 328.099 232 321 232C306.111 232 292.002 230.344 292 249z"/>
<path style="fill:#ffffff; stroke:none;" d="M339 232L344 237L344 232L339 232M351 232L351 237L356 237L356 232L351 232z"/>
<path style="fill:#ad9794; stroke:none;" d="M281 234L281 235L284 235L281 234z"/>
<path style="fill:#fffffe; stroke:none;" d="M284 234L284 237L286 237L286 234L284 234z"/>
<path style="fill:#868cac; stroke:none;" d="M280 235L280 240L281 240L280 235z"/>
<path style="fill:#f9b369; stroke:none;" d="M281 235L281 241L282 241L283 235L281 235z"/>
<path style="fill:#cccccc; stroke:none;" d="M71 237L71 243L77 243L77 249L71 249L71 255L77 255L77 249L83 249L83 255L88 255L88 249L83 249L83 243L77 243L77 237L71 237z"/>
<path style="fill:#ffffff; stroke:none;" d="M100 237L100 243L94 243L94 249L100 249L100 255L106 255L106 261L112 261L112 255L106 255L106 249L112 249L112 243L106 243L106 237L100 237z"/>
<path style="fill:#fffffe; stroke:none;" d="M135 237L135 243L137 243L138 237L135 237z"/>
<path style="fill:#ffffff; stroke:none;" d="M356 237L356 243L350 243L350 238L345 238C345.577 241.474 346.526 242.423 350 243L350 249L356 249L356 255L362 255L362 249L356 249L356 243L362 243L362 237L356 237z"/>
<path style="fill:#cccccc; stroke:none;" d="M83 238L83 243L88 243L88 238L83 238M118 238L118 243L123 243L123 238L118 238z"/>
<path style="fill:#86766d; stroke:none;" d="M203.333 240.667L203.667 241.333L203.333 240.667z"/>
<path style="fill:#85756f; stroke:none;" d="M229 242L229 247L230 247L229 242z"/>
<path style="fill:#ffffff; stroke:none;" d="M71 243L71 249L77 249L77 243L71 243z"/>
<path style="fill:#cccccc; stroke:none;" d="M100 243L100 249L106 249L106 243L100 243z"/>
<path style="fill:#ffffff; stroke:none;" d="M129 243L129 249L135 249L135 243L129 243z"/>
<path style="fill:#988272; stroke:none;" d="M202.333 243.667L202.667 244.333L202.333 243.667z"/>
<path style="fill:#ffffff; stroke:none;" d="M282 243L282 249L286 249L286 243L282 243z"/>
<path style="fill:#cccccc; stroke:none;" d="M346 243L346 249L350 249L350 255L345 255L345 260L350 260L350 255L356 255L356 261L351 261L351 266L356 266L356 261L362 261L362 255L356 255L356 249L350 249L350 243L346 243M356 243L356 249L362 249L362 243L356 243z"/>
<path style="fill:#ffb566; stroke:none;" d="M150 245L154 250L156 244L150 245z"/>
<path style="fill:#71686d; stroke:none;" d="M216 244L216 249L217 249L216 244z"/>
<path style="fill:#ffffff; stroke:none;" d="M141 246L145 249L145 248L141 246z"/>
<path style="fill:#7682b3; stroke:none;" d="M173 246L173 254L174 254L173 246z"/>
<path style="fill:#feb567; stroke:none;" d="M215 246L210 268L214 268L215 246z"/>
<path style="fill:#bfae7b; stroke:none;" d="M229 247L229 251L230 251L229 247z"/>
<path style="fill:#64919c; stroke:none;" d="M295 248L295 249L301 249L295 248z"/>
<path style="fill:#ffffff; stroke:none;" d="M77 249L77 255L83 255L83 249L77 249M123 249L123 254L129 249L123 249M147 249L152 252C151.346 248.946 149.993 249.064 147 249z"/>
<path style="fill:#87766e; stroke:none;" d="M200.333 249.667L200.667 250.333L200.333 249.667z"/>
<path style="fill:#ffffff; stroke:none;" d="M286 252L292 250C289.238 248.409 286.714 248.669 286 252z"/>
<path style="fill:#0057a6; stroke:none;" d="M162 296L162 294C179.423 292.425 196.685 305.566 214 305.984C225.89 306.271 235.308 297.33 233.808 285C232.108 271.03 214.044 268.451 203 265.769C183.202 260.959 160.306 250.27 140 250.004C128.213 249.849 116.152 255.961 112.329 268C102.973 297.468 130.865 305.886 153 311.012C170.747 315.121 192.75 327.027 211 325.906C219.53 325.382 227.457 320.211 235 316.637C248.959 310.021 263.041 303.669 277 297.059C287.712 291.986 303.015 287.726 311.66 279.471C318.54 272.901 318.521 260.055 311.66 253.529C296.825 239.422 268.416 260.85 254 267.27C249.555 269.25 238.54 272.044 236.121 276.418C234.268 279.768 237.758 284.456 237.802 288C237.902 295.911 231.658 303.718 225 307.28C217.381 311.356 208.822 309.098 201 306.859C188.036 303.148 174.844 300.107 162 296z"/>
<path style="fill:#e9e9e9; stroke:none;" d="M316 258L317 269L318 269L321 267L321 272L327 272L327 267L333 267L333 272L344 272L344 278L339 278L339 284L344 284L344 290L339 290L339 295L333 295L333 290L327 290L327 295L321 295L321 290L316 290L316 284L321 284L321 278L314 276L303 284L304 290L298 290L298 295L292 295L292 290L279 295L280 301L275 301L275 302L280 302L280 324L275 324L275 319L274 319L274 324L269 324L269 325L280 325L280 329L281 329L281 325L292 325L292 324L287 324L287 319L286 319L286 324L281 324L281 302L286 302L286 307L287 307L287 302L298 301L298 296L309 296L309 301L304 301L304 307L310 307L310 313L315 313L315 319L310 319L310 325L315 325L315 329L321 329L321 325L327 325L327 319L321 319L321 313L316 313L316 307L321 307L321 301L327 301L327 296L333 296L333 301L339 301L339 307L344 307L344 313L339 313L339 319L333 319L333 325L339 325L339 329L345 329L345 325L350 325L350 329L356 329L356 324L351 324L351 319L345 319L345 313L350 313L350 307L356 307L356 301L362 301L362 295L356 295L356 290L350 290L350 284L345 284L345 278L350 278L350 272L356 272L356 267L362 267L362 261L356 261L356 266L351 266L351 261L356 261L356 255L350 255L350 260L345 260L345 255L350 255L350 249L336.999 257.772L316 258z"/>
<path style="fill:#a6b4d8; stroke:none;" d="M152.333 250.667L152.667 251.333L152.333 250.667z"/>
<path style="fill:#779ac0; stroke:none;" d="M289.667 250.333L290.333 250.667L289.667 250.333z"/>
<path style="fill:#b6c4d6; stroke:none;" d="M148.667 251.333L149.333 251.667L148.667 251.333z"/>
<path style="fill:#ac8b6e; stroke:none;" d="M213.333 251.667L213.667 252.333L213.333 251.667z"/>
<path style="fill:#767577; stroke:none;" d="M228 252L228 255L229 255L228 252z"/>
<path style="fill:#c09f87; stroke:none;" d="M266 253L267 259L268 259L266 253z"/>
<path style="fill:#5a5c6e; stroke:none;" d="M215 254L215 258L216 258L215 254z"/>
<path style="fill:#ffffff; stroke:none;" d="M71 255L71 261L77 261L77 255L71 255z"/>
<path style="fill:#cccccc; stroke:none;" d="M89 255L89 260L94 260L94 255L89 255z"/>
<path style="fill:#908ca6; stroke:none;" d="M250.333 255.667L250.667 256.333L250.333 255.667z"/>
<path style="fill:#ffb566; stroke:none;" d="M266 255L263 263C266.39 261.131 267.484 258.68 266 255z"/>
<path style="fill:#8ea8c8; stroke:none;" d="M119 257L120 258L119 257z"/>
<path style="fill:#957c6c; stroke:none;" d="M211 257L211 260L212 260L211 257z"/>
<path style="fill:#85a6c8; stroke:none;" d="M315.333 258.667L315.667 259.333L315.333 258.667z"/>
<path style="fill:#796b67; stroke:none;" d="M197.333 259.667L197.667 260.333L197.333 259.667z"/>
<path style="fill:#8e7b72; stroke:none;" d="M227 259L227 267L228 267L227 259z"/>
<path style="fill:#ffffff; stroke:none;" d="M77 261L77 266L82 266L82 261L77 261M100 261L100 266L106 266L106 261L100 261z"/>
<path style="fill:#61788b; stroke:none;" d="M185 261L185 262L188 262L185 261z"/>
<path style="fill:#cccccc; stroke:none;" d="M339 261L339 266L344 266L344 261L339 261z"/>
<path style="fill:#a99698; stroke:none;" d="M248 262L248 270L249 270L248 262z"/>
<path style="fill:#af987d; stroke:none;" d="M193 263L193 264L197 264L193 263z"/>
<path style="fill:#7e7777; stroke:none;" d="M209 264L209 268L210 268L209 264z"/>
<path style="fill:#ffffff; stroke:none;" d="M71 267L71 272L77 272L77 267L71 267M83 267L83 272L88 272L88 267L83 267M94 267L94 272L89 272L89 278L94 278L94 284L89 284L89 290L94 290L94 295L100 295L100 290L106 290L106 295L112 295L112 290L106 290L106 284L110 284L110 278L106 278L106 272L111 272L111 267L106 267L106 272L100 272L100 267L94 267M318 267L317 272L321 272L321 278L327 278L327 284L321 284L321 290L327 290L327 284L333 284L333 290L339 290L339 284L333 284L333 278L339 278L339 272L333 272L333 267L327 267L327 272L321 272L321 267L318 267z"/>
<path style="fill:#cccccc; stroke:none;" d="M345 267L345 272L350 272L350 267L345 267M356 267L356 272L350 272L350 278L345 278L345 284L350 284L350 290L356 290L356 295L362 295L362 290L356 290L356 284L362 284L362 278L356 278L356 272L362 272L362 267L356 267z"/>
<path style="fill:#89918f; stroke:none;" d="M212.667 268.333L213.333 268.667L212.667 268.333z"/>
<path style="fill:#7393b8; stroke:none;" d="M316.333 269.667L316.667 270.333L316.333 269.667z"/>
<path style="fill:#7a9bc1; stroke:none;" d="M111.333 270.667L111.667 271.333L111.333 270.667z"/>
<path style="fill:#638097; stroke:none;" d="M244.667 271.333L245.333 271.667L244.667 271.333z"/>
<path style="fill:#cccccc; stroke:none;" d="M316 271C315.138 275.646 316.189 277.616 321 278L321 272L316 271M71 272L71 278L77 278L77 284L71 284L71 290L77 290L77 284L83 284L83 278L77 278L77 272L71 272M94 272L94 278L100 278L100 284L94 284L94 290L100 290L100 284L106 284L106 278L100 278L100 272L94 272M106 272L106 278L110 278L111 272L106 272M327 272L327 278L333 278L333 272L327 272M339 272L339 278L344 278L344 272L339 272z"/>
<path style="fill:#ffffff; stroke:none;" d="M356 272L356 278L362 278L362 272L356 272M77 273L77 278L82 278L82 273L77 273z"/>
<path style="fill:#758fb0; stroke:none;" d="M110 274L110 280L111 280L110 274z"/>
<path style="fill:#ffffff; stroke:none;" d="M71 278L71 284L77 284L77 278L71 278M83 278L83 284L88 284L88 278L83 278z"/>
<path style="fill:#cccccc; stroke:none;" d="M321 278L321 284L327 284L327 278L321 278M333 278L333 284L339 284L339 278L333 278z"/>
<path style="fill:#ffffff; stroke:none;" d="M350 278L350 284L356 284L356 278L350 278z"/>
<path style="fill:#cccccc; stroke:none;" d="M110 280L110 284L106 284L106 290L112 290L112 295L116 295L110 280z"/>
<path style="fill:#ffffff; stroke:none;" d="M77 284L77 290L83 290L83 284L77 284z"/>
<path style="fill:#799dbe; stroke:none;" d="M237 284L237 292L238 292L237 284z"/>
<path style="fill:#cccccc; stroke:none;" d="M316 284L316 290L321 290L321 284L316 284M327 284L327 290L333 290L333 284L327 284M339 284L339 290L344 290L344 284L339 284z"/>
<path style="fill:#ffffff; stroke:none;" d="M356 284L356 290L362 290L362 284L356 284M298 290L292 290L292 295L298 295L298 290L304 290L304 285L298 290z"/>
<path style="fill:#cccccc; stroke:none;" d="M234 286L234 290L237 290L237 286L234 286z"/>
<path style="fill:#d6d6d6; stroke:none;" d="M297 287L293 289L293 290C295.45 289.88 298.095 289.905 297 287z"/>
<path style="fill:#ffffff; stroke:none;" d="M71 290L71 295L77 295L77 290L71 290M83 290L83 295L88 295L88 290L83 290M234 290L234 295L237 295L237 290L234 290z"/>
<path style="fill:#cccccc; stroke:none;" d="M310 290L310 295L315 295L315 290L310 290M321 290L321 295L327 295L327 290L321 290M333 290L333 295L339 295L339 290L333 290M345 290L345 295L350 295L350 290L345 290z"/>
<path style="fill:#7795b4; stroke:none;" d="M233.333 291.667L233.667 292.333L233.333 291.667z"/>
<path style="fill:#7290b0; stroke:none;" d="M285.667 292.333L286.333 292.667L285.667 292.333z"/>
<path style="fill:#ffffff; stroke:none;" d="M162 296L176 299L176 296C171.389 295.319 165.098 291.363 162 296z"/>
<path style="fill:#c6c9cb; stroke:none;" d="M233 293L232 297L234 299L235 299L236 295L233 293z"/>
<path style="fill:#ffffff; stroke:none;" d="M77 296L77 301L82 301L82 296L77 296M89 296L89 301L94 301L94 296L89 296M100 296L100 301L94 301L94 307L89 307L89 313L94 313L94 319L100 319L100 325L94 325L94 329L100 329L100 325L106 325L106 329L112 329L112 325L106 325L106 319L112 319L112 324L117 324L117 319L112 319L112 313L117 313L117 307L112 307L112 301L117 301L117 296L112 296L112 301L106 301L106 296L100 296z"/>
<path style="fill:#bec2c8; stroke:none;" d="M163 296L163 297L170 298L170 296L163 296z"/>
<path style="fill:#547ba6; stroke:none;" d="M176.667 296.333L177.333 296.667L176.667 296.333z"/>
<path style="fill:#ffffff; stroke:none;" d="M233 296L230 301L234 301L233 296M275 301L269 301L269 307L263 304L258 307L263 307L263 313L257 313L257 307C253.127 307.807 251.642 309.059 251 313L244 312L245 319L240 319L240 325L234 325L234 319C229.635 319.34 228.34 320.635 228 325L222 325L222 329L228 329L228 325L234 325L234 329L240 329L240 325L245 325L245 329L252 329L252 325L257 325L257 329L263 329L263 325L269 325L269 329L275 329L275 325L269 325L269 319L275 319L275 324L280 324L280 319L275 319L275 313L280 313L280 307L275 307L275 301L280 301L280 296L275 301M286 296L286 301L292 301L292 296L286 296M298 296L298 301L292 301L292 307L286 307L286 302L281 302L281 307L286 307L286 313L281 313L281 319L286 319L286 313L292 313L292 319L287 319L287 324L292 324L292 319L298 319L298 325L292 325L292 329L298 329L298 325L304 325L304 329L310 329L310 325L304 325L304 319L310 319L310 313L304 313L304 307L298 307L298 301L304 301L304 296L298 296z"/>
<path style="fill:#cccccc; stroke:none;" d="M304 296L304 301L309 301L309 296L304 296M316 296L316 301L321 301L321 296L316 296M327 296L327 301L321 301L321 307L316 307L316 313L321 313L321 319L327 319L327 325L321 325L321 329L327 329L327 325L333 325L333 329L339 329L339 325L333 325L333 319L339 319L339 313L344 313L344 307L339 307L339 301L333 301L333 296L327 296M339 296L339 301L344 301L344 296L339 296M351 296L351 301L356 301L356 296L351 296z"/>
<path style="fill:#e1e1e1; stroke:none;" d="M117 297L117 301L112 301L112 307L117 307L117 313L112 313L112 319L117 319L117 324L112 324L112 329L118 329L118 325L123 325L123 319L118 319L118 313L123 313L123 307L118 307L118 302L123 302L123 301L117 297z"/>
<path style="fill:#cccccc; stroke:none;" d="M174 299L174 300L184 299L174 299z"/>
<path style="fill:#9cb2cc; stroke:none;" d="M170.667 298.333L171.333 298.667L170.667 298.333z"/>
<path style="fill:#5081b4; stroke:none;" d="M184.667 298.333L185.333 298.667L184.667 298.333z"/>
<path style="fill:#cccccc; stroke:none;" d="M269 300L269 301C272.194 300.987 274.271 301.403 275 298L269 300z"/>
<path style="fill:#efefef; stroke:none;" d="M182 299C184.384 303.085 188.558 303.426 193 304C191.329 299.198 186.553 299.097 182 299z"/>
<path style="fill:#cccccc; stroke:none;" d="M229 300L228 306L233 301L229 300z"/>
<path style="fill:#ffffff; stroke:none;" d="M71 301L71 307L77 307L77 313L71 313L71 319L77 319L77 324L82 324L82 319L77 319L77 313L83 313L83 319L88 319L88 313L83 313L83 307L77 307L77 301L71 301z"/>
<path style="fill:#cccccc; stroke:none;" d="M100 301L100 307L94 307L94 313L100 313L100 319L106 319L106 313L112 313L112 307L106 307L106 301L100 301M193 301L193 305L199 306L193 301z"/>
<path style="fill:#7596b8; stroke:none;" d="M194 301L194 302L197 302L194 301z"/>
<path style="fill:#cccccc; stroke:none;" d="M262 303L263 307L269 307L269 301L262 303M298 301L298 307L304 307L304 301L298 301z"/>
<path style="fill:#ffffff; stroke:none;" d="M327 301L327 307L321 307L321 313L327 313L327 319L333 319L333 313L339 313L339 307L333 307L333 301L327 301z"/>
<path style="fill:#cccccc; stroke:none;" d="M356 301L356 307L350 307L350 313L345 313L345 319L350 319L350 313L356 313L356 319L351 319L351 324L356 324L356 319L362 319L362 313L356 313L356 307L362 307L362 301L356 301z"/>
<path style="fill:#ffffff; stroke:none;" d="M83 302L83 307L88 307L88 302L83 302M118 302L118 307L123 307L123 313L118 313L118 319L123 319L123 325L118 325L118 329L123 329L123 325L129 325L129 329L135 329L135 325L141 325L141 329L147 329L147 325L141 325L141 319L147 319L147 324L152 324L152 319L147 319L147 313L141 313C140.657 308.703 139.249 307.489 135 307L135 313L129 313L129 307L123 307L123 302L118 302z"/>
<path style="fill:#cccccc; stroke:none;" d="M123 302L123 307L129 307L129 313L135 313L135 306L123 302z"/>
<path style="fill:#7592b5; stroke:none;" d="M198.667 302.333L199.333 302.667L198.667 302.333z"/>
<path style="fill:#ffffff; stroke:none;" d="M227 302L217 307L217 309C221.306 308.803 228.907 307.893 227 302z"/>
<path style="fill:#cccccc; stroke:none;" d="M275 302L275 307L280 307L280 302L275 302M287 302L287 307L292 307L292 302L287 302M310 302L310 307L315 307L315 302L310 302M345 302L345 307L350 307L350 302L345 302z"/>
<path style="fill:#97afcf; stroke:none;" d="M188.667 303.333L189.333 303.667L188.667 303.333z"/>
<path style="fill:#ffffff; stroke:none;" d="M199 303L205 307L205 304L199 303z"/>
<path style="fill:#89a4c6; stroke:none;" d="M201.667 303.333L202.333 303.667L201.667 303.333z"/>
<path style="fill:#6688af; stroke:none;" d="M205.667 304.333L206.333 304.667L205.667 304.333z"/>
<path style="fill:#fdfefe; stroke:none;" d="M129 305L133 307L133 306L129 305z"/>
<path style="fill:#cfcfcf; stroke:none;" d="M205 305L205 307L211 307L211 308L208 308L208 309L219 310C215.33 305.869 210.289 305.418 205 305z"/>
<path style="fill:#a7b4c3; stroke:none;" d="M215 306L215 307L223 306L215 306z"/>
<path style="fill:#88a3c3; stroke:none;" d="M199.667 306.333L200.333 306.667L199.667 306.333z"/>
<path style="fill:#cccccc; stroke:none;" d="M256 306L257 313L263 313L263 307L256 306M71 307L71 313L77 313L77 307L71 307z"/>
<path style="fill:#ffffff; stroke:none;" d="M100 307L100 313L106 313L106 307L100 307z"/>
<path style="fill:#95aac2; stroke:none;" d="M203.667 307.333L204.333 307.667L203.667 307.333z"/>
<path style="fill:#fcfcfc; stroke:none;" d="M205 307L205 308L211 308L205 307z"/>
<path style="fill:#cccccc; stroke:none;" d="M269 307L269 313L263 313L263 319L257 319L257 313L252 313L252 319L257 319L257 325L263 325L263 319L269 319L269 313L275 313L275 307L269 307M281 307L281 313L286 313L286 307L281 307M292 307L292 313L298 313L298 319L304 319L304 313L298 313L298 307L292 307M304 307L304 313L310 313L310 307L304 307M327 307L327 313L333 313L333 307L327 307z"/>
<path style="fill:#ffffff; stroke:none;" d="M356 307L356 313L362 313L362 307L356 307z"/>
<path style="fill:#cccccc; stroke:none;" d="M141 308L141 313L147 313L147 319L152 319L152 313L147 313L147 309L141 308z"/>
<path style="fill:#759abf; stroke:none;" d="M206.667 308.333L207.333 308.667L206.667 308.333z"/>
<path style="fill:#517cab; stroke:none;" d="M222.667 308.333L223.333 308.667L222.667 308.333z"/>
<path style="fill:#cccccc; stroke:none;" d="M245 312L251 313L251 309L245 312z"/>
<path style="fill:#e7e7e7; stroke:none;" d="M147 310C147.654 313.054 149.007 312.936 152 313L152 324L147 324L147 319L146 319L146 324L141 324L141 325L152 325L152 329L153 329L153 325L164 325L164 324L159 324L159 319L158 319L158 324L153 324L153 313L157 313L147 310z"/>
<path style="fill:#7a94bb; stroke:none;" d="M149.667 310.333L150.333 310.667L149.667 310.333z"/>
<path style="fill:#5883af; stroke:none;" d="M153 311L153 312L156 312L153 311z"/>
<path style="fill:#668ab1; stroke:none;" d="M157.667 312.333L158.333 312.667L157.667 312.333z"/>
<path style="fill:#cccccc; stroke:none;" d="M239 314L240 319L234 319L234 325L240 325L240 319L245 319L244 312L239 314M77 313L77 319L83 319L83 313L77 313M123 313L123 319L129 319L129 325L135 325L135 319L141 319L141 313L135 313L135 319L129 319L129 313L123 313z"/>
<path style="fill:#ffffff; stroke:none;" d="M153 313L153 319L158 319L158 313L153 313z"/>
<path style="fill:#cccccc; stroke:none;" d="M158 313L158 319L164 319L164 325L158 325L158 329L164 329L164 325L170 325L170 329L176 329L176 325L181 325L181 329L188 329L188 325L193 325L193 329L199 329L199 325L193 325L195 323L195 322L187 321L187 325L182 325L183 319L170 316L164 319L166 315L158 313M275 313L275 319L280 319L280 313L275 313M286 313L286 319L292 319L292 313L286 313M310 313L310 319L315 319L315 313L310 313z"/>
<path style="fill:#ffffff; stroke:none;" d="M350 313L350 319L356 319L356 313L350 313M164 315L164 319L170 319C168.901 315.679 167.41 315.263 164 315z"/>
<path style="fill:#fcfcfc; stroke:none;" d="M234 319L240 319L240 315L234 319z"/>
<path style="fill:#cccecf; stroke:none;" d="M231 319L234 317L231 319z"/>
<path style="fill:#cccccc; stroke:none;" d="M71 319L71 325L77 325L77 319L71 319z"/>
<path style="fill:#ffffff; stroke:none;" d="M89 319L89 324L94 324L94 319L89 319z"/>
<path style="fill:#cccccc; stroke:none;" d="M106 319L106 325L112 325L112 319L106 319M141 319L141 324L146 324L146 319L141 319M153 319L153 324L158 324L158 319L153 319z"/>
<path style="fill:#ffffff; stroke:none;" d="M159 319L159 324L164 324L164 319L159 319M170 319L170 325L176 325L176 319L170 319z"/>
<path style="fill:#5e8aba; stroke:none;" d="M183.667 319.333L184.333 319.667L183.667 319.333z"/>
<path style="fill:#cccccc; stroke:none;" d="M246 319L246 325L251 325L251 319L246 319M269 319L269 324L274 324L274 319L269 319M281 319L281 324L286 324L286 319L281 319M292 319L292 325L298 325L298 319L292 319M304 319L304 325L310 325L310 319L304 319M316 319L316 324L321 324L321 319L316 319M339 319L339 324L344 324L344 319L339 319z"/>
<path style="fill:#ffffff; stroke:none;" d="M356 319L356 325L362 325L362 319L356 319M182 320L182 325L187 325C186.423 321.526 185.474 320.577 182 320z"/>
<path style="fill:#7c9ec0; stroke:none;" d="M186.667 320.333L187.333 320.667L186.667 320.333z"/>
<path style="fill:#cccccc; stroke:none;" d="M214 325L214 326L216 329L222 329L222 325L228 325L228 320L214 325z"/>
<path style="fill:#ffffff; stroke:none;" d="M193 323L193 325L199 325L199 329L205 329L205 325L193 323M71 325L71 329L77 329L77 325L71 325M83 325L83 329L88 329L88 325L83 325z"/>
<path style="fill:#cccccc; stroke:none;" d="M100 325L100 329L106 329L106 325L100 325M123 325L123 329L129 329L129 325L123 325M135 325L135 329L141 329L141 325L135 325M147 325L147 329L152 329L152 325L147 325z"/>
<path style="fill:#ffffff; stroke:none;" d="M153 325L153 329L158 329L158 325L153 325M164 325L164 329L170 329L170 325L164 325M176 325L176 329L181 329L181 325L176 325M188 325L188 329L193 329L193 325L188 325z"/>
<path style="fill:#cccccc; stroke:none;" d="M228 325L228 329L234 329L234 325L228 325M240 325L240 329L245 329L245 325L240 325M252 325L252 329L257 329L257 325L252 325M263 325L263 329L269 329L269 325L263 325M275 325L275 329L280 329L280 325L275 325z"/>
<path style="fill:#ffffff; stroke:none;" d="M281 325L281 329L286 329L286 325L281 325z"/>
<path style="fill:#cccccc; stroke:none;" d="M286 325L286 329L292 329L292 325L286 325M298 325L298 329L304 329L304 325L298 325M310 325L310 329L315 329L315 325L310 325z"/>
<path style="fill:#ffffff; stroke:none;" d="M327 325L327 329L333 329L333 325L327 325z"/>
<path style="fill:#cccccc; stroke:none;" d="M345 325L345 329L350 329L350 325L345 325M356 325L356 329L362 329L362 325L356 325M205 326L205 329L213 327L205 326z"/>
<path style="fill:#ffffff; stroke:none;" d="M211 329C213.993 328.936 215.346 329.054 216 326L211 329z"/>
</svg>
